<svg width="1430" height="585" viewBox="0 0 1430 585" fill="none" xmlns="http://www.w3.org/2000/svg">
<g filter="url(#filter0_f_317_501)">
<ellipse cx="715" cy="292.772" rx="465" ry="42" fill="black" fill-opacity="0.3"/>
</g>
<path d="M367.118 285.219L356.036 278.723V265.922L367.118 259.809L378.39 265.922V278.723L367.118 285.219Z" fill="url(#paint0_linear_317_501)"/>
<path d="M367.118 292.67L356.036 286.939L356.8 337.569L367.118 344.256L378.39 336.422V285.792L367.118 292.67Z" fill="url(#paint1_linear_317_501)"/>
<path d="M356.8 358.394L367.118 351.516L378.963 358.394L378.39 369.475L367.118 375.971L356.8 369.475V358.394Z" fill="url(#paint2_linear_317_501)"/>
<path d="M428.829 314.642L374.187 347.695L385.459 354.955V367.564L437.426 337.569L428.829 329.735V314.642Z" fill="url(#paint3_linear_317_501)"/>
<path d="M443.158 333.747L434.369 326.678V313.495L445.26 307.764L454.812 313.495L454.048 326.678L443.158 333.747Z" fill="url(#paint4_linear_317_501)"/>
<path d="M454.048 237.264L455.577 307.764L445.26 301.841L433.414 307.764L434.369 250.447L454.048 237.264Z" fill="url(#paint5_linear_317_501)"/>
<path d="M454.048 231.723L434.369 244.333V231.723L421.951 227.711L442.967 215.101L454.048 220.451V231.723Z" fill="url(#paint6_linear_317_501)"/>
<path d="M428.829 247.963L384.504 274.902V263.821L371.703 256.752L415.455 230.577L428.829 235.162V247.963Z" fill="url(#paint7_linear_317_501)"/>
<path d="M438.19 211.089L418.703 222.935L373.231 195.041L394.056 183.768L438.19 211.089Z" fill="url(#paint8_linear_317_501)"/>
<path d="M391 180.52L367.118 192.939L345.719 179.374L367.118 166L391 180.52Z" fill="url(#paint9_linear_317_501)"/>
<path d="M306.553 313.878L359.284 347.504L350.305 352.853V366.418L302.732 333.747L301.394 320.374L306.553 313.878Z" fill="url(#paint10_linear_317_501)"/>
<path d="M295.471 317.89L296.618 331.264L281.142 322.857V298.593L301.394 310.439L295.471 317.89Z" fill="url(#paint11_linear_317_501)"/>
<path d="M299.293 301.841L280.569 292.67L278.658 238.984L297.191 250.447L299.293 301.841Z" fill="url(#paint12_linear_317_501)"/>
<path d="M298.146 231.914V245.288L280.569 233.061V220.451L297.191 211.089L313.622 222.935L298.146 231.914Z" fill="url(#paint13_linear_317_501)"/>
<path d="M362.15 195.041L318.78 222.362L300.63 208.415L341.898 183.768L362.15 195.041Z" fill="url(#paint14_linear_317_501)"/>
<path d="M304.833 235.927L316.679 227.711L362.15 256.752L349.54 262.866V274.902L304.833 247.581V235.927Z" fill="url(#paint15_linear_317_501)"/>
<path d="M367.118 285.219L356.036 278.723V265.922L367.118 259.809L378.39 265.922V278.723L367.118 285.219Z" stroke="#FF8B00" stroke-width="4"/>
<path d="M367.118 292.67L356.036 286.939L356.8 337.569L367.118 344.256L378.39 336.422V285.792L367.118 292.67Z" stroke="#FF8B00" stroke-width="4"/>
<path d="M356.8 358.394L367.118 351.516L378.963 358.394L378.39 369.475L367.118 375.971L356.8 369.475V358.394Z" stroke="#FF8B00" stroke-width="4"/>
<path d="M428.829 314.642L374.187 347.695L385.459 354.955V367.564L437.426 337.569L428.829 329.735V314.642Z" stroke="#FF8B00" stroke-width="4"/>
<path d="M443.158 333.747L434.369 326.678V313.495L445.26 307.764L454.812 313.495L454.048 326.678L443.158 333.747Z" stroke="#FF8B00" stroke-width="4"/>
<path d="M454.048 237.264L455.577 307.764L445.26 301.841L433.414 307.764L434.369 250.447L454.048 237.264Z" stroke="#FF8B00" stroke-width="4"/>
<path d="M454.048 231.723L434.369 244.333V231.723L421.951 227.711L442.967 215.101L454.048 220.451V231.723Z" stroke="#FF8B00" stroke-width="4"/>
<path d="M428.829 247.963L384.504 274.902V263.821L371.703 256.752L415.455 230.577L428.829 235.162V247.963Z" stroke="#FF8B00" stroke-width="4"/>
<path d="M438.19 211.089L418.703 222.935L373.231 195.041L394.056 183.768L438.19 211.089Z" stroke="#FF8B00" stroke-width="4"/>
<path d="M391 180.52L367.118 192.939L345.719 179.374L367.118 166L391 180.52Z" stroke="#FF8B00" stroke-width="4"/>
<path d="M306.553 313.878L359.284 347.504L350.305 352.853V366.418L302.732 333.747L301.394 320.374L306.553 313.878Z" stroke="#FF8B00" stroke-width="4"/>
<path d="M295.471 317.89L296.618 331.264L281.142 322.857V298.593L301.394 310.439L295.471 317.89Z" stroke="#FF8B00" stroke-width="4"/>
<path d="M299.293 301.841L280.569 292.67L278.658 238.984L297.191 250.447L299.293 301.841Z" stroke="#FF8B00" stroke-width="4"/>
<path d="M298.146 231.914V245.288L280.569 233.061V220.451L297.191 211.089L313.622 222.935L298.146 231.914Z" stroke="#FF8B00" stroke-width="4"/>
<path d="M362.15 195.041L318.78 222.362L300.63 208.415L341.898 183.768L362.15 195.041Z" stroke="#FF8B00" stroke-width="4"/>
<path d="M304.833 235.927L316.679 227.711L362.15 256.752L349.54 262.866V274.902L304.833 247.581V235.927Z" stroke="#FF8B00" stroke-width="4"/>
<path d="M547.848 327.772H492.68V231.772H542.472C551.688 231.772 558.259 233.564 562.184 237.148C566.109 240.732 568.072 245.938 568.072 252.764C568.072 259.676 566.835 265.01 564.36 268.764C561.885 272.434 558.515 274.866 554.248 276.06V276.956C566.621 279.09 572.808 287.538 572.808 302.3C572.808 309.98 570.76 316.167 566.664 320.86C562.653 325.468 556.381 327.772 547.848 327.772ZM535.432 289.5H523.4V305.244H535.176C539.528 305.244 541.704 302.599 541.704 297.308C541.704 292.103 539.613 289.5 535.432 289.5ZM533.128 252.764H523.4V267.1H532.872C536.797 267.1 538.76 264.711 538.76 259.932C538.76 255.154 536.883 252.764 533.128 252.764ZM583.555 227.932L614.275 225.628V305.756C615.896 306.098 617.347 306.354 618.627 306.524C619.907 306.695 620.974 306.823 621.827 306.908L620.419 329.436C607.363 329.436 598.702 328.668 594.435 327.132C590.851 325.852 588.12 324.188 586.243 322.14C584.451 320.092 583.555 317.148 583.555 313.308V227.932ZM627.983 289.372C627.983 275.634 631.183 265.436 637.583 258.78C643.983 252.039 654.351 248.668 668.687 248.668C683.023 248.668 693.391 252.039 699.791 258.78C706.191 265.436 709.391 275.634 709.391 289.372C709.391 303.111 706.191 313.351 699.791 320.092C693.391 326.748 683.023 330.076 668.687 330.076C654.692 330.076 644.41 326.791 637.839 320.22C631.268 313.65 627.983 303.367 627.983 289.372ZM661.007 277.596V307.676H665.743C669.498 307.676 672.186 307.292 673.807 306.524C675.514 305.756 676.367 303.964 676.367 301.148V271.068H671.631C667.876 271.068 665.146 271.452 663.439 272.22C661.818 272.988 661.007 274.78 661.007 277.596ZM778 304.732L779.92 326.876C774.629 329.01 767.76 330.076 759.312 330.076C744.976 330.076 734.608 326.748 728.208 320.092C721.808 313.351 718.608 303.111 718.608 289.372C718.608 275.634 721.808 265.436 728.208 258.78C734.608 252.039 744.976 248.668 759.312 248.668C768.443 248.668 775.312 249.735 779.92 251.868L776.208 272.732C773.477 272.22 771.045 271.836 768.912 271.58C766.779 271.239 764.901 271.068 763.28 271.068C755.515 271.068 751.632 273.799 751.632 279.26V306.78C753.083 307.036 754.747 307.25 756.624 307.42C758.587 307.591 760.763 307.676 763.152 307.676C767.931 307.676 772.88 306.695 778 304.732ZM860.532 231.772V256.348H838.26V327.772H807.54V256.348H785.268V231.772H860.532ZM868.93 327.772V250.972H884.29L892.738 259.548C898.882 253.916 906.477 250.29 915.522 248.668L917.314 277.724C916.119 277.724 914.669 277.895 912.962 278.236C911.255 278.578 909.506 279.004 907.714 279.516C906.007 280.028 904.429 280.668 902.978 281.436C901.527 282.119 900.418 282.93 899.65 283.868V327.772H868.93ZM962.907 248.668C987.483 248.668 999.771 257.116 999.771 274.012V327.772H984.411L975.707 319.068C974.171 320.775 972.336 322.311 970.203 323.676C968.155 325.042 965.936 326.194 963.547 327.132C961.158 328.071 958.726 328.796 956.251 329.308C953.776 329.82 951.387 330.076 949.083 330.076C944.731 330.076 940.806 329.607 937.307 328.668C933.894 327.815 930.992 326.407 928.603 324.444C926.214 322.482 924.379 319.879 923.099 316.636C921.819 313.394 921.179 309.426 921.179 304.732C921.179 286.3 935.088 277.084 962.907 277.084H969.051V271.58C967.43 271.495 965.936 271.41 964.571 271.324C963.291 271.239 962.096 271.196 960.987 271.196C949.467 271.196 939.526 272.604 931.163 275.42L927.451 253.404C937.691 250.247 949.51 248.668 962.907 248.668ZM952.155 301.404V307.676H958.555C962.992 307.676 965.894 307.164 967.259 306.14C968.454 305.031 969.051 303.708 969.051 302.172V294.876H962.779C959.11 294.876 956.422 295.26 954.715 296.028C953.008 296.796 952.155 298.588 952.155 301.404ZM1069.88 304.732L1071.8 326.876C1066.5 329.01 1059.64 330.076 1051.19 330.076C1036.85 330.076 1026.48 326.748 1020.08 320.092C1013.68 313.351 1010.48 303.111 1010.48 289.372C1010.48 275.634 1013.68 265.436 1020.08 258.78C1026.48 252.039 1036.85 248.668 1051.19 248.668C1060.32 248.668 1067.19 249.735 1071.8 251.868L1068.08 272.732C1065.35 272.22 1062.92 271.836 1060.79 271.58C1058.65 271.239 1056.78 271.068 1055.16 271.068C1047.39 271.068 1043.51 273.799 1043.51 279.26V306.78C1044.96 307.036 1046.62 307.25 1048.5 307.42C1050.46 307.591 1052.64 307.676 1055.03 307.676C1059.81 307.676 1064.76 306.695 1069.88 304.732ZM1114.01 301.66V307.036C1115.54 307.207 1117.08 307.335 1118.62 307.42C1120.15 307.506 1121.69 307.548 1123.22 307.548C1132.78 307.548 1142.42 306.012 1152.15 302.94L1155.74 325.468C1144.22 328.54 1132.87 330.076 1121.69 330.076C1107.35 330.076 1096.98 326.748 1090.58 320.092C1084.18 313.351 1080.98 303.111 1080.98 289.372C1080.98 275.634 1084.18 265.436 1090.58 258.78C1097.07 252.039 1107.44 248.668 1121.69 248.668C1128.86 248.668 1134.83 249.138 1139.61 250.076C1144.39 250.93 1148.23 252.423 1151.13 254.556C1154.11 256.604 1156.2 259.42 1157.4 263.004C1158.68 266.503 1159.32 270.94 1159.32 276.316C1159.32 280.754 1158.55 284.594 1157.02 287.836C1155.56 290.994 1153.09 293.596 1149.59 295.644C1146.09 297.692 1141.44 299.228 1135.64 300.252C1129.84 301.191 1122.63 301.66 1114.01 301.66ZM1114.01 277.596V283.868H1120.28C1124.03 283.868 1126.72 283.484 1128.34 282.716C1130.05 281.948 1130.9 280.156 1130.9 277.34V271.068H1124.63C1120.88 271.068 1118.15 271.452 1116.44 272.22C1114.82 272.988 1114.01 274.78 1114.01 277.596Z" fill="#FFFEFE"/>
<defs>
<filter id="filter0_f_317_501" x="0" y="0.772461" width="1430" height="584" filterUnits="userSpaceOnUse" color-interpolation-filters="sRGB">
<feFlood flood-opacity="0" result="BackgroundImageFix"/>
<feBlend mode="normal" in="SourceGraphic" in2="BackgroundImageFix" result="shape"/>
<feGaussianBlur stdDeviation="125" result="effect1_foregroundBlur_317_501"/>
</filter>
<linearGradient id="paint0_linear_317_501" x1="366.353" y1="166" x2="366.353" y2="375.971" gradientUnits="userSpaceOnUse">
<stop stop-color="#812323"/>
<stop offset="1" stop-color="#FF8B00"/>
</linearGradient>
<linearGradient id="paint1_linear_317_501" x1="366.353" y1="166" x2="366.353" y2="375.971" gradientUnits="userSpaceOnUse">
<stop stop-color="#812323"/>
<stop offset="1" stop-color="#FF8B00"/>
</linearGradient>
<linearGradient id="paint2_linear_317_501" x1="366.353" y1="166" x2="366.353" y2="375.971" gradientUnits="userSpaceOnUse">
<stop stop-color="#812323"/>
<stop offset="1" stop-color="#FF8B00"/>
</linearGradient>
<linearGradient id="paint3_linear_317_501" x1="366.353" y1="166" x2="366.353" y2="375.971" gradientUnits="userSpaceOnUse">
<stop stop-color="#812323"/>
<stop offset="1" stop-color="#FF8B00"/>
</linearGradient>
<linearGradient id="paint4_linear_317_501" x1="366.353" y1="166" x2="366.353" y2="375.971" gradientUnits="userSpaceOnUse">
<stop stop-color="#812323"/>
<stop offset="1" stop-color="#FF8B00"/>
</linearGradient>
<linearGradient id="paint5_linear_317_501" x1="366.353" y1="166" x2="366.353" y2="375.971" gradientUnits="userSpaceOnUse">
<stop stop-color="#812323"/>
<stop offset="1" stop-color="#FF8B00"/>
</linearGradient>
<linearGradient id="paint6_linear_317_501" x1="366.353" y1="166" x2="366.353" y2="375.971" gradientUnits="userSpaceOnUse">
<stop stop-color="#812323"/>
<stop offset="1" stop-color="#FF8B00"/>
</linearGradient>
<linearGradient id="paint7_linear_317_501" x1="366.353" y1="166" x2="366.353" y2="375.971" gradientUnits="userSpaceOnUse">
<stop stop-color="#812323"/>
<stop offset="1" stop-color="#FF8B00"/>
</linearGradient>
<linearGradient id="paint8_linear_317_501" x1="366.353" y1="166" x2="366.353" y2="375.971" gradientUnits="userSpaceOnUse">
<stop stop-color="#812323"/>
<stop offset="1" stop-color="#FF8B00"/>
</linearGradient>
<linearGradient id="paint9_linear_317_501" x1="366.353" y1="166" x2="366.353" y2="375.971" gradientUnits="userSpaceOnUse">
<stop stop-color="#812323"/>
<stop offset="1" stop-color="#FF8B00"/>
</linearGradient>
<linearGradient id="paint10_linear_317_501" x1="366.353" y1="166" x2="366.353" y2="375.971" gradientUnits="userSpaceOnUse">
<stop stop-color="#812323"/>
<stop offset="1" stop-color="#FF8B00"/>
</linearGradient>
<linearGradient id="paint11_linear_317_501" x1="366.353" y1="166" x2="366.353" y2="375.971" gradientUnits="userSpaceOnUse">
<stop stop-color="#812323"/>
<stop offset="1" stop-color="#FF8B00"/>
</linearGradient>
<linearGradient id="paint12_linear_317_501" x1="366.353" y1="166" x2="366.353" y2="375.971" gradientUnits="userSpaceOnUse">
<stop stop-color="#812323"/>
<stop offset="1" stop-color="#FF8B00"/>
</linearGradient>
<linearGradient id="paint13_linear_317_501" x1="366.353" y1="166" x2="366.353" y2="375.971" gradientUnits="userSpaceOnUse">
<stop stop-color="#812323"/>
<stop offset="1" stop-color="#FF8B00"/>
</linearGradient>
<linearGradient id="paint14_linear_317_501" x1="366.353" y1="166" x2="366.353" y2="375.971" gradientUnits="userSpaceOnUse">
<stop stop-color="#812323"/>
<stop offset="1" stop-color="#FF8B00"/>
</linearGradient>
<linearGradient id="paint15_linear_317_501" x1="366.353" y1="166" x2="366.353" y2="375.971" gradientUnits="userSpaceOnUse">
<stop stop-color="#812323"/>
<stop offset="1" stop-color="#FF8B00"/>
</linearGradient>
</defs>
</svg>
